<?xml version="1.0" encoding="utf-8"?>
<!-- Generator: Adobe Illustrator 17.0.0, SVG Export Plug-In . SVG Version: 6.00 Build 0)  -->
<!DOCTYPE svg PUBLIC "-//W3C//DTD SVG 1.1//EN" "http://www.w3.org/Graphics/SVG/1.1/DTD/svg11.dtd">
<svg version="1.1" id="Layer_1" xmlns="http://www.w3.org/2000/svg" xmlns:xlink="http://www.w3.org/1999/xlink" x="0px" y="0px"
	 width="792px" height="504px" viewBox="0 0 792 504" enable-background="new 0 0 792 504" xml:space="preserve">
<rect x="47.002" y="16" fill="none" width="703" height="490.5"/>
<rect x="880.614" y="50.327" fill="none" width="770" height="421.846"/>
<text transform="matrix(1 0 0 1 880.6143 110.4062)"><tspan x="0" y="0" font-family="'Arton-RomanII'" font-size="80">Besp</tspan><tspan x="175.998" y="0" font-family="'Arton-RomanII'" font-size="80" letter-spacing="-2">o</tspan><tspan x="216.877" y="0" font-family="'Arton-RomanII'" font-size="80">ke he</tspan><tspan x="438.316" y="0" font-family="'Arton-RomanII'" font-size="80">d</tspan><tspan x="482.876" y="0" font-family="'Arton-RomanII'" font-size="80">ges</tspan><tspan x="0" y="96" font-family="'Arton-RomanII'" font-size="80" letter-spacing="-4">T</tspan><tspan x="55.6" y="96" font-family="'Arton-RomanII'" font-size="80">he Queen </tspan><tspan x="0" y="192" font-family="'Arton-RomanII'" font-size="80" letter-spacing="-3">S</tspan><tspan x="44.398" y="192" font-family="'Arton-RomanII'" font-size="80">pends</tspan><tspan x="0" y="286" font-family="'Arton-RomanII'" font-size="50">abcdefghijklmnopqrstuvwxyz </tspan><tspan x="0" y="343" font-family="'Arton-RomanII'" font-size="50">ABCDEFGHIJKLMNOPQRSTU</tspan><tspan x="717.795" y="343" font-family="'Arton-RomanII'" font-size="50">-</tspan></text>
<path fill="#040303" d="M279.077,133.007c-18.726,0-41.379,9.48-41.379,28.818c0,16.975,20.328,27.198,41.379,27.198
	c-14.586-2.933-20.288-14.335-20.288-29.178C258.789,150.357,262.844,135.2,279.077,133.007z"/>
<path fill="#040303" d="M331.385,164.583c0,52.532-90.881,48.481-90.881,80.96c0-44.715,68.81-36.328,68.81-85.818
	c0-16.501-12.184-25.505-22.777-26.718C314.571,133.007,331.385,144.033,331.385,164.583z"/>
<path fill="#040303" d="M235.9,214.548c-17.736,1.838-30.47,11.555-30.47,24.294c0,25.127,34.719,40.701,79.66,40.701
	c46.295,0,71.878-22.118,71.878-39.858c0-21.878-24.704-30.327-41.495-27.922c15.418,1.138,22.291,15.486,22.291,29.112
	c0,24.187-22.494,38.186-53.735,38.186c-33.43,0-63.276-13.034-63.276-40.845C220.754,229.817,226.016,219.377,235.9,214.548z"/>
<path fill="#040303" d="M533.298,132.08c-18.326,5.446-25.421,20.388-25.421,37.955c0,16.569,10.762,32.501,27.467,35.995
	c-31.224-0.456-49.475-15.691-49.475-34.996C485.87,147.477,502.352,134.701,533.298,132.08z"/>
<path fill="#040303" d="M389.472,132.221c-29.388-1.307-45.367,16.983-45.367,38.43c0,20.406,20.618,34.67,46.019,34.67
	c17.914,0,36.617-12.821,36.617-18.629c-28.96,17.901-60.484,3.007-60.484-20.95C366.257,150.356,375.869,136.917,389.472,132.221z"
	/>
<path fill="#040303" d="M395.791,132.121c6.183,1.38,13.095,8.654,11.959,17.195c-1.236,9.289-8.324,17.572-21.483,17.572
	c17.431,5.163,37.131-2.25,40.037-11.134C430.571,142.708,416.267,132.216,395.791,132.121z"/>
<path fill="#040303" d="M482.666,205.989c-24.75-2.342-38.339-17.891-38.084-38.598c0,0-0.979-28.297-0.691-44.012
	c0.448-25.514,0.548-35.047-16.793-41.302c25.389,2.403,38.265,19.228,37.435,40.705l-0.026,44.54
	C464.506,195.496,472.501,200.554,482.666,205.989z"/>
<path fill="#040303" d="M93.886,137.913c0,20.473-8.698,55.134-22.104,66.96c30.245-12.967,45.608-33.103,45.608-68.164
	c0-29.058-18.733-50.932-41.694-54.766C88.852,88.69,93.886,115.45,93.886,137.913z"/>
<path fill="#040303" d="M107.372,88.953c23.765-5.442,39.777,3.042,39.777,20.3c0,15.359-9.94,22.902-20.186,25.452
	c26.15,1.974,42.305-10.011,42.305-25.65C169.268,86.999,137.209,75.398,107.372,88.953z"/>
<path fill="#040303" d="M126.963,134.705c16.452,0,30.722,12.975,30.722,33.885c0,18.306-12.823,30.106-25.148,30.106
	c-10.415,0-20.215-4.407-24.014-13.495c3.063,13.303,13.985,21.305,28.411,21.305c26.103,0,44.267-14.846,44.267-36.996
	C181.2,144.796,155.343,131.546,126.963,134.705z"/>
<path fill="#040303" d="M676.91,132.716c21.69,8.854,28.318,29.441,28.318,59.348C720.586,145.753,711.374,127.82,676.91,132.716z"
	/>
<path fill="#040303" d="M584.542,132.371c28.44,3.019,16.862,81.523,68.459,71.675C627.231,201.132,639.082,126.992,584.542,132.371
	z"/>
<path fill="#040303" d="M292.458,93.85c-8.615,0-11.118,9.94-7.915,34.516c2.753-15.206,19.169-17.049,19.169-25.145
	C303.713,97.777,298.489,93.85,292.458,93.85z"/>
<path fill="#040303" d="M541.369,132.08c18.326,5.446,25.421,20.388,25.421,37.955c0,16.569-10.762,32.501-27.467,35.995
	c31.224-0.456,49.475-15.691,49.475-34.996C588.797,147.477,572.315,134.701,541.369,132.08z"/>
<path fill="#040303" d="M234.258,205.989c-24.506-0.54-35.399-11.387-35.399-28.594c0-0.797-0.26-5.823-0.26-6.588
	c0-22.436-1.159-34.438-13.099-37.778c21.294,2.02,33.573,5.362,33.573,31.486c0,0.782,0.176,7.24,0.176,8.056
	C219.249,192.044,222.498,200.742,234.258,205.989z"/>
<path fill="#040303" d="M631.129,132.529c28.44,3.019,16.862,81.523,68.459,71.675C673.818,201.29,685.669,127.149,631.129,132.529z
	"/>
</svg>
