<?xml version="1.0" encoding="utf-8"?>
<!-- Generator: Adobe Illustrator 17.0.0, SVG Export Plug-In . SVG Version: 6.00 Build 0)  -->
<!DOCTYPE svg PUBLIC "-//W3C//DTD SVG 1.1//EN" "http://www.w3.org/Graphics/SVG/1.1/DTD/svg11.dtd">
<svg version="1.1" id="Layer_1" xmlns="http://www.w3.org/2000/svg" xmlns:xlink="http://www.w3.org/1999/xlink" x="0px" y="0px"
	 width="1296px" height="864px" viewBox="0 0 1296 864" enable-background="new 0 0 1296 864" xml:space="preserve">
<path fill="#211701" d="M350.956,254.348c-23.699,0-52.367,11.997-52.367,36.472c0,21.483,25.727,34.421,52.367,34.421
	c-18.46-3.711-25.675-18.142-25.675-36.926C325.281,276.305,330.412,257.123,350.956,254.348z"/>
<path fill="#211701" d="M417.156,294.309c0,66.482-115.015,61.356-115.015,102.46c0-56.59,87.084-45.975,87.084-108.608
	c0-20.883-15.42-32.278-28.825-33.814C395.876,254.348,417.156,268.303,417.156,294.309z"/>
<path fill="#211701" d="M290.692,358.36c-22.446,2.325-32.941,13.806-32.941,29.928c0,31.8,43.939,51.51,100.815,51.51
	c58.59,0,90.966-27.992,90.966-50.443c0-27.688-31.265-38.381-52.515-35.337c19.512,1.441,28.211,19.599,28.211,36.843
	c0,30.611-28.468,48.327-68.004,48.327c-42.307,0-80.08-16.495-80.08-51.692C277.145,376.867,278.183,364.472,290.692,358.36z"/>
<path fill="#211701" d="M676.93,253.174c-23.193,6.892-32.172,25.802-32.172,48.035c0,20.969,13.62,41.132,34.762,45.553
	c-39.515-0.577-62.613-19.858-62.613-44.29C616.907,272.66,637.766,256.491,676.93,253.174z"/>
<path fill="#211701" d="M493.564,253.353c-37.192-1.655-57.415,21.493-57.415,48.635c0,25.826,26.093,43.877,58.239,43.877
	c22.671,0,46.341-16.225,46.341-23.576c-36.651,22.655-76.546,3.806-76.546-26.513C464.183,276.303,476.348,259.297,493.564,253.353
	z"/>
<path fill="#211701" d="M501.561,253.227c7.825,1.746,16.572,10.952,15.134,21.761c-1.564,11.756-10.534,22.238-27.188,22.238
	c22.06,6.535,46.991-2.847,50.669-14.091C545.577,266.626,527.474,253.347,501.561,253.227z"/>
<path fill="#211701" d="M613.203,346.712c-31.323-2.964-48.521-22.643-48.198-48.849c0,0-1.239-35.812-0.874-55.7
	c0.566-32.289,0.694-44.353-21.253-52.27c32.132,3.042,48.427,24.334,47.377,51.514l-0.034,56.368
	C590.221,333.432,600.339,339.833,613.203,346.712z"/>
<path fill="#211701" d="M115.176,263.981c0,25.91-11.007,66.109-27.974,81.076c38.277-16.41,57.72-38.228,57.72-82.6
	c0-36.775-23.708-68.123-52.766-72.976C108.805,198.02,115.176,235.553,115.176,263.981z"/>
<path fill="#211701" d="M132.243,198.353c30.076-6.888,50.34,3.85,50.34,25.691c0,19.438-12.58,28.984-25.546,32.211
	c33.095,2.498,53.539-12.67,53.539-32.462C210.576,195.88,170.004,181.198,132.243,198.353z"/>
<path fill="#211701" d="M157.037,256.255c20.821,0,38.88,16.42,38.88,42.883c0,23.168-16.229,38.101-31.826,38.101
	c-13.181,0-25.583-5.577-30.392-17.079c3.877,16.836,17.698,26.963,35.956,26.963c33.035,0,56.022-18.788,56.022-46.821
	C225.678,269.025,192.954,252.257,157.037,256.255z"/>
<path fill="#211701" d="M858.758,253.781c27.451,11.206,35.838,37.259,35.838,75.109
	C914.032,270.279,902.374,247.585,858.758,253.781z"/>
<path fill="#211701" d="M745.351,253.544c35.993,3.821,21.339,103.172,86.639,90.71
	C799.377,340.565,814.375,246.736,745.351,253.544z"/>
<path fill="#211701" d="M367.891,204.792c-10.902,0-14.07,12.58-10.016,43.682c3.483-19.244,24.26-21.577,24.26-31.823
	C382.135,209.762,375.523,204.792,367.891,204.792z"/>
<path fill="#211701" d="M687.144,253.174c23.192,6.892,32.171,25.802,32.171,48.035c0,20.969-13.62,41.132-34.762,45.553
	c39.515-0.577,62.613-19.858,62.613-44.29C747.167,272.66,726.309,256.491,687.144,253.174z"/>
<path fill="#211701" d="M287.652,346.47c-26.697-1.413-39.771-14.411-39.771-36.188c0-1.009-0.183-7.369-0.183-8.338
	c0-28.394,2.199-43.584-12.912-47.81c26.949,2.556,38.822,6.787,38.822,39.847c0,0.989,0.222,4.125,0.222,5.157
	C273.83,328.974,276.797,339.829,287.652,346.47z"/>
<path fill="#211701" d="M802.147,253.544c35.993,3.821,21.339,103.172,86.639,90.71C856.173,340.565,871.17,246.736,802.147,253.544
	z"/>
</svg>
