<?xml version="1.0" encoding="utf-8"?>
<!-- Generator: Adobe Illustrator 17.0.0, SVG Export Plug-In . SVG Version: 6.00 Build 0)  -->
<!DOCTYPE svg PUBLIC "-//W3C//DTD SVG 1.1//EN" "http://www.w3.org/Graphics/SVG/1.1/DTD/svg11.dtd">
<svg version="1.1" id="Layer_1" xmlns="http://www.w3.org/2000/svg" xmlns:xlink="http://www.w3.org/1999/xlink" x="0px" y="0px"
	 width="792px" height="504px" viewBox="0 0 792 504" enable-background="new 0 0 792 504" xml:space="preserve">
<path d="M188.347,56.748c0,80.769-57.128,34.017-57.128,101.702c0,22.423,7.173,36.888,26.737,36.888
	c-13.463,0-33.889,0.357-45.103,0.492c-10.403,0.125-31.352,0.214-31.352-26.614c0-28.869,0-76.717,0-78
	c0-30.753-20.831-32.982-20.831-32.982s23.175,0.113,35.188,0.113c23.125,0,34.643,11.563,34.643,26.493c0,0.635,0,2.541,0,2.541
	s11.656-35.268,57.593-35.268"/>
<path d="M350.597,165.756c-0.009-0.392-0.097-0.784-0.097-1.185c0-11.249,0-32.423,0-49.579c0-47.932-28.073-62.911-76.322-62.911
	c-60.967,0-83.95,23.793-83.95,54.796c19.97,0.411,43.668-5.086,55.346-12.379c23.344-14.577,57.352-9.629,57.422,18.998
	c-2.269-0.324-15.932-2.261-44.482-2.261c-53.383,0-79.012,12.799-79.012,42.617c0,25.733,19.159,44.659,53.595,44.659
	c23.405,0,43.143-5.783,64.337-24.033c0,17.676,8.453,21.2,24.329,21.408c1.158,0.015,33.944-0.082,48.729-0.082
	C359.608,195.802,350.761,190.396,350.597,165.756z M250.585,161.497c-13.301,0-20.585-3.768-20.585-11.084
	c0-26.602,62.649-18.568,70.975-18.568C300.975,140.017,281.342,161.497,250.585,161.497z"/>
<path d="M341.178,57.5c0,0,30.66,0,41.849,0c13.557,0,30.598-0.58,38.676,28.579c4.678,16.887,16.633,60.652,16.633,60.652
	s9.113-50.076,11.828-63.367c1.549-7.583,1.9-26.108-16.666-26.108l35.156,0.043c22.397,0,37.992,1.973,45.787,29.895
	c4.265,15.278,15.584,60.732,15.584,60.732s8.114-52.447,11.418-67.288c3.55-15.944,12.879-23.398,27.338-23.398
	c0,0,33.72,0.294,40.241,0.294c-14.869,2.348-20.087,8.348-23.822,26.004c0,0-14.529,65.32-19.804,87.104
	c-4.692,19.376-15.499,25.149-33.963,25.149c-12.407,0-49.021,0.139-49.021,0.139c23.438,0,13.096-28.55,13.096-28.55
	l-13.782-53.688l-8.813,50.986c0,0-2.116,31.821-26.443,31.821c-18.496,0-67.661,0-67.661,0s26.464,0.831,15.519-35.888
	l-19.776-67.845C367.185,67.165,354.595,57.5,341.178,57.5z"/>
<path d="M369.497,69.807"/>
</svg>
